<svg xmlns="http://www.w3.org/2000/svg" width="20" height="20" fill="currentColor" viewBox="0 0 20 20">
  <g clip-path="url(#clip0)">
    <path d="M18.717 8.332l-7.82-1.172a.585.585 0 00-.672.58v6.05a2.76 2.76 0 00-1.603-.511 2.778 2.778 0 00-2.775 2.774 2.778 2.778 0 002.775 2.775 2.778 2.778 0 002.774-2.774v-4.788l6.648.996v2.7a2.759 2.759 0 00-1.603-.512 2.778 2.778 0 00-2.775 2.775A2.778 2.778 0 0016.441 20a2.778 2.778 0 002.775-2.775V8.911a.586.586 0 00-.499-.58zM6.334 4.096l4.304.538a.587.587 0 00.659-.582V1.205a.586.586 0 00-.514-.58L5.82.004a.587.587 0 00-.658.58V7.58a2.759 2.759 0 00-1.603-.513A2.778 2.778 0 00.784 9.841a2.778 2.778 0 002.775 2.775 2.778 2.778 0 002.775-2.775V4.096z"/>
  </g>
  <defs>
    <clipPath id="clip0">
      <path d="M0 0h20v20H0z"/>
    </clipPath>
  </defs>
</svg>
