<svg xmlns="http://www.w3.org/2000/svg" width="20" height="20" fill="currentColor" viewBox="0 0 20 20">
  <path d="M10 8.855c-2.841 0-6.87 4.393-6.87 7.166 0 1.249.96 1.995 2.567 1.995 1.748 0 2.902-.898 4.303-.898 1.414 0 2.571.898 4.303.898 1.608 0 2.568-.746 2.568-1.995 0-2.773-4.03-7.166-6.87-7.166zm-5.27-.451C4.358 7.164 3.211 6.36 2.17 6.61 1.126 6.86.583 8.066.956 9.306c.372 1.24 1.518 2.043 2.56 1.794 1.042-.25 1.585-1.456 1.213-2.696zm3.032-.744c1.107-.291 1.66-1.787 1.237-3.34-.424-1.554-1.665-2.577-2.772-2.286-1.107.291-1.66 1.787-1.237 3.34.423 1.554 1.665 2.578 2.772 2.286zM17.83 6.61c-1.042-.249-2.188.554-2.561 1.794-.372 1.24.17 2.447 1.213 2.696 1.042.25 2.188-.554 2.56-1.794.373-1.24-.17-2.447-1.212-2.696zm-5.592 1.05c1.107.292 2.348-.732 2.772-2.285.423-1.554-.13-3.05-1.238-3.341-1.107-.292-2.348.732-2.772 2.285-.423 1.554.13 3.05 1.238 3.341z"/>
</svg>
