<svg width="512" height="512" viewBox="0 0 512 512" fill="none" xmlns="http://www.w3.org/2000/svg">
<style>
path {
  fill: #132F24;
}
@media (prefers-color-scheme: dark) {
  path {
    fill: #F9FAFA;
  }
}
</style>
<path fill-rule="evenodd" clip-rule="evenodd" d="M429.494 169.973L230.251 369.217C197.251 402.216 143.749 402.216 110.75 369.217L34.1404 292.608L75.8597 250.888L152.469 327.498C162.427 337.456 178.573 337.456 188.531 327.498L387.775 128.254L429.494 169.973Z" />
<path d="M193.121 294.674L71.3566 172.91L111.662 132.605L233.426 254.369L193.121 294.674Z" />
<path d="M267.921 369.474L264.523 366.076L304.828 325.771L308.226 329.169C320.528 341.471 340.472 341.471 352.774 329.169L436.848 245.096L477.153 285.401L393.079 369.474C358.518 404.036 302.483 404.036 267.921 369.474Z" />
</svg>
