<svg width="400" height="90" viewBox="0 0 400 90" fill="none" xmlns="http://www.w3.org/2000/svg">
<path d="M28.9044 22.2554C14.123 22.2554 5.298 31.6707 5.298 47.4437C5.298 54.9858 7.52317 61.1618 11.7313 65.3056C15.8108 69.3245 21.7483 71.4475 28.9082 71.4475C40.3065 71.4475 47.0728 66.7814 49.5402 57.1845L49.5743 57.0482L40.333 54.4371L40.1968 54.3992L40.1552 54.5355C39.0199 58.4484 36.8174 62.4522 29.0066 62.4522C21.1958 62.4522 17.0218 58.403 16.1892 50.0776H49.7256V49.9489C49.9224 47.5648 49.9224 45.5099 49.9224 43.6972C49.9338 30.0662 42.2744 22.2554 28.9044 22.2554ZM28.6055 30.7777C35.7275 30.7777 39.4059 34.6679 39.8411 42.6679H16.2914C17.298 34.649 21.3207 30.7777 28.6055 30.7777Z" fill="currentColor"/>
<path d="M115.629 22.2554C107.236 22.2554 101.552 27.0804 99.1826 36.2157H98.3349C97.578 27.0842 92.7569 22.2554 84.4428 22.2554C76.439 22.2554 70.6036 27.035 68.0038 35.7199H67.3604V23.4437H56.6812V69.8808H67.5572V43.7691C67.5572 36.8098 72.2725 32.1324 79.2886 32.1324C82.562 32.1324 88.0568 33.385 88.0568 41.7899V69.8694H98.9328V43.7578C98.9328 36.6887 103.542 32.1211 110.664 32.1211C116.254 32.1211 119.334 35.5497 119.334 41.7786V69.8581H130.308V39.0312C130.308 33.8316 129.086 29.7294 126.675 26.8382C124.155 23.7956 120.435 22.2554 115.629 22.2554Z" fill="currentColor"/>
<path d="M152.677 26.4711H141.703V69.8808H152.677V26.4711Z" fill="currentColor"/>
<path d="M153.173 10.596H141.306V20.3481H153.173V10.596Z" fill="currentColor"/>
<path d="M191.584 60.0794C189.253 60.7909 187.22 61.2639 184.893 61.2639C180.552 61.2639 178.698 59.2318 178.698 54.4749V33.0974H192.359V24.2005H178.698V11.6291H167.724V24.2005H161.188V33.0974H167.724V55.9583C167.724 65.8656 173.079 71.5459 182.418 71.5459C187.232 71.5459 189.608 70.9063 192.954 69.8543L193.067 69.8202L191.754 60.0303L191.584 60.0794Z" fill="currentColor"/>
<path d="M230.494 61.5591C227.992 61.5591 225.366 61.5856 222.823 61.6083C220.208 61.6348 217.502 61.6575 214.853 61.6575C211.72 61.6575 210.441 60.9536 210.441 59.228C210.441 58.3273 210.865 57.6045 211.5 56.5109L212.636 54.736C215.175 55.3519 217.781 55.6444 220.394 55.6064C233.192 55.6064 240.534 50.6868 240.534 42.1003C240.534 36.859 236.848 33.5818 229.26 32.0832L229.332 31.4588C233.533 31.7729 236.269 31.9432 238.611 31.9432H242.206V23.4437H220.893C207.777 23.4437 200.257 29.4115 200.257 39.8221C200.257 46.8988 203.845 51.8675 210.641 54.2024L207.364 56.0227C203.932 57.6878 202.04 59.947 202.04 62.3879C202.04 65.7256 204.231 67.9205 208.375 68.7417V68.9044C201.563 70.4181 197.684 73.5213 197.684 77.4342C197.684 82.017 200.288 87.2734 220.594 87.2734C238.066 87.2734 245.192 83.1864 245.192 73.1693C245.192 65.5932 240.11 61.5591 230.494 61.5591ZM220.397 32.0416C227.326 32.0416 231.145 34.8723 231.145 40.0151C231.145 45.3131 227.561 47.9924 220.496 47.9924C213.529 47.9924 210.142 45.385 210.142 40.0151C210.142 34.8004 213.703 32.0454 220.397 32.0454V32.0416ZM221.188 79.2772C209.904 79.2772 206.282 78.0132 206.282 74.0738C206.282 70.7852 210.047 69.0672 213.763 69.0672H230.1C234.218 69.0672 236.394 70.5809 236.394 73.4796C236.409 77.1542 233.904 79.281 221.188 79.281V79.2772Z" fill="currentColor"/>
<path d="M279.22 22.2554C271.36 22.2554 265.374 27.175 262.781 35.7199H262.142V23.0653H251.466V69.8808H262.342V43.7691C262.342 36.8098 267.058 32.1324 274.074 32.1324C281.321 32.1324 282.842 37.385 282.842 41.7899V69.8694H293.718V39.0312C293.718 28.2119 288.568 22.2554 279.22 22.2554Z" fill="currentColor"/>
<path d="M325.056 22.2554C317.866 22.2554 311.871 24.4919 307.705 28.719C303.485 33.0066 301.253 39.2393 301.253 46.7512C301.253 62.2668 310.153 71.5459 325.056 71.5459C332.307 71.5459 338.301 69.245 342.422 64.8931C346.543 60.5411 348.662 54.2971 348.662 46.7512C348.662 31.6405 339.618 22.2554 325.056 22.2554ZM324.961 31.5345C333.234 31.5345 337.79 36.8968 337.79 46.6376C337.79 56.7152 333.355 62.0397 324.961 62.0397C316.636 62.0397 312.235 56.7152 312.235 46.6376C312.231 36.772 316.636 31.5345 324.961 31.5345Z" fill="currentColor"/>
<path d="M376.068 42.5544C367.179 40.9536 365.393 38.6944 365.393 35.5648C365.393 32.0795 368.261 30.1646 373.468 30.1646C379.02 30.1646 381.673 32.3519 382.929 37.9716L382.959 38.1116L392.84 35.9697L392.81 35.8297C390.604 26.1873 385.056 22.2554 373.661 22.2554C361.805 22.2554 355.009 27.3226 355.009 36.1589C355.009 44.1665 359.731 48.227 371.856 50.6528C381.695 52.4579 383.519 54.4371 383.519 57.6424C383.519 61.491 380.67 63.4399 375.05 63.4399C368.31 63.4399 364.568 60.632 362.91 54.3576L362.876 54.2289L353.003 56.2649L353.029 56.4011C355.039 67.0312 361.563 71.5648 374.85 71.5648C387.444 71.5648 394.1 66.6187 394.1 57.2639C394.104 49.2072 388.878 44.9498 376.068 42.5544Z" fill="currentColor"/>
</svg>
